<svg id="visual" viewBox="0 0 900 600" width="900" height="600" xmlns="http://www.w3.org/2000/svg" xmlns:xlink="http://www.w3.org/1999/xlink" version="1.1"><path d="M0 515L30 519C60 523 120 531 180 534.7C240 538.3 300 537.7 360 535.7C420 533.7 480 530.3 540 526.3C600 522.3 660 517.7 720 510C780 502.3 840 491.7 870 486.3L900 481L900 601L870 601C840 601 780 601 720 601C660 601 600 601 540 601C480 601 420 601 360 601C300 601 240 601 180 601C120 601 60 601 30 601L0 601Z" fill="#1777c7"></path><path d="M0 494L30 495C60 496 120 498 180 503.3C240 508.7 300 517.3 360 525.3C420 533.3 480 540.7 540 544.7C600 548.7 660 549.3 720 543.8C780 538.3 840 526.7 870 520.8L900 515L900 601L870 601C840 601 780 601 720 601C660 601 600 601 540 601C480 601 420 601 360 601C300 601 240 601 180 601C120 601 60 601 30 601L0 601Z" fill="#1373c0"></path><path d="M0 532L30 530.8C60 529.7 120 527.3 180 529.3C240 531.3 300 537.7 360 541C420 544.3 480 544.7 540 547C600 549.3 660 553.7 720 549.5C780 545.3 840 532.7 870 526.3L900 520L900 601L870 601C840 601 780 601 720 601C660 601 600 601 540 601C480 601 420 601 360 601C300 601 240 601 180 601C120 601 60 601 30 601L0 601Z" fill="#0f6fb9"></path><path d="M0 549L30 545.3C60 541.7 120 534.3 180 534C240 533.7 300 540.3 360 545.2C420 550 480 553 540 552C600 551 660 546 720 541C780 536 840 531 870 528.5L900 526L900 601L870 601C840 601 780 601 720 601C660 601 600 601 540 601C480 601 420 601 360 601C300 601 240 601 180 601C120 601 60 601 30 601L0 601Z" fill="#0b6bb2"></path><path d="M0 573L30 569.3C60 565.7 120 558.3 180 553.2C240 548 300 545 360 544.7C420 544.3 480 546.7 540 545.3C600 544 660 539 720 540.2C780 541.3 840 548.7 870 552.3L900 556L900 601L870 601C840 601 780 601 720 601C660 601 600 601 540 601C480 601 420 601 360 601C300 601 240 601 180 601C120 601 60 601 30 601L0 601Z" fill="#0767ab"></path><path d="M0 563L30 565.8C60 568.7 120 574.3 180 577.3C240 580.3 300 580.7 360 578.2C420 575.7 480 570.3 540 566.8C600 563.3 660 561.7 720 563C780 564.3 840 568.7 870 570.8L900 573L900 601L870 601C840 601 780 601 720 601C660 601 600 601 540 601C480 601 420 601 360 601C300 601 240 601 180 601C120 601 60 601 30 601L0 601Z" fill="#0463a4"></path><path d="M0 574L30 574.8C60 575.7 120 577.3 180 575.7C240 574 300 569 360 566C420 563 480 562 540 565.8C600 569.7 660 578.3 720 580.8C780 583.3 840 579.7 870 577.8L900 576L900 601L870 601C840 601 780 601 720 601C660 601 600 601 540 601C480 601 420 601 360 601C300 601 240 601 180 601C120 601 60 601 30 601L0 601Z" fill="#025f9d"></path><path d="M0 581L30 583C60 585 120 589 180 590.7C240 592.3 300 591.7 360 589.3C420 587 480 583 540 583.8C600 584.7 660 590.3 720 592.7C780 595 840 594 870 593.5L900 593L900 601L870 601C840 601 780 601 720 601C660 601 600 601 540 601C480 601 420 601 360 601C300 601 240 601 180 601C120 601 60 601 30 601L0 601Z" fill="#005b96"></path></svg>