<svg id="visual" viewBox="0 0 900 600" width="900" height="600" xmlns="http://www.w3.org/2000/svg" xmlns:xlink="http://www.w3.org/1999/xlink" version="1.1"><g><g transform="translate(838 525)"><path d="M0 -132.4L103.5 -82.6L129.1 29.5L57.5 119.3L-57.5 119.3L-129.1 29.5L-103.5 -82.6Z" fill="#005892"></path></g><g transform="translate(618 76)"><path d="M0 -104L81.3 -64.8L101.4 23.1L45.1 93.7L-45.1 93.7L-101.4 23.1L-81.3 -64.8Z" fill="#005892"></path></g><g transform="translate(369 451)"><path d="M0 -68L53.2 -42.4L66.3 15.1L29.5 61.3L-29.5 61.3L-66.3 15.1L-53.2 -42.4Z" fill="#005892"></path></g><g transform="translate(46 301)"><path d="M0 -100L78.2 -62.3L97.5 22.3L43.4 90.1L-43.4 90.1L-97.5 22.3L-78.2 -62.3Z" fill="#005892"></path></g><g transform="translate(898 123)"><path d="M0 -118L92.3 -73.6L115 26.3L51.2 106.3L-51.2 106.3L-115 26.3L-92.3 -73.6Z" fill="#005892"></path></g></g></svg>